PathFileType	4	(X/Y/Z)	OpenSim_Sub02_EMGStiffKnee_Gyro.trc
DataRate	CameraRate	NumFrames	NumMarkers	Units	OrigDataRate	OrigDataStartFrame	OrigNumFrames
100	100	37	8	m	100	987	7890
Frame#	Time	torso_imu_offset_imu	pelvis_imu_offset_imu	tibia_r_imu_offset_imu	femur_r_imu_offset_imu	tibia_l_imu_offset_imu	femur_l_imu_offset_imu	toes_r_imu_offset_imu	toes_l_imu_offset_imu
				X1	Y1	Z1	X2	Y2	Z2	X3	Y3	Z3	X4	Y4	Z4	X5	Y5	Z5	X6	Y6	Z6	X7	Y7	Z7	X8		Y8	Z8	

987	9.86000000	-0.22244701	0.19530238	0.00453116	-0.38535601	-0.51602943	0.16921921	-0.17960973	0.06146309	-1.27274487	-0.45987971	-0.02562540	-0.41325120	-0.08767573	-0.68015946	-0.86353483	-0.02532813	-0.34260969	-0.06631108	0.06659967	-1.31421185	-0.18242606	-0.31449206	-0.74762736	0.44982877
988	9.87000000	-0.24482800	0.20025690	-0.01519909	-0.42282255	-0.54043618	0.24078871	-0.20102089	0.04883633	-1.35450802	-0.24106953	-0.04106570	-0.39327722	-0.31746186	-0.49770622	-0.60332979	-0.24256918	-0.31102085	-0.14816765	0.08211433	-1.40710508	-0.19934349	-0.54376091	-1.32190385	0.50540188
989	9.88000000	-0.26493951	0.21186633	-0.04678592	-0.47273196	-0.54282140	0.31076402	-0.23164498	0.02373233	-1.45641638	0.10708763	-0.06862417	-0.35311757	-0.47819109	-0.33029411	-0.32059469	-0.43357612	-0.26231057	-0.24064257	0.07975634	-1.47429881	-0.21690709	-1.23405420	-1.78774000	0.67445247
990	9.89000000	-0.28034523	0.21268411	-0.08297289	-0.53208171	-0.51040745	0.35381463	-0.26913525	-0.01156584	-1.57973105	0.46281632	-0.04870227	-0.25626654	-0.55797742	-0.10180577	0.01165049	-0.57688611	-0.21614670	-0.29883660	0.08458188	-1.56362398	-0.21250737	-1.86342146	-2.28512728	1.30752512
991	9.90000000	-0.30386903	0.21231862	-0.12339460	-0.63280235	-0.40701205	0.35469826	-0.32072864	-0.02495617	-1.72965047	0.71861238	0.04280311	-0.11960531	-0.73628513	0.27109818	0.43844133	-0.66200359	-0.20853612	-0.32515850	0.08338543	-1.68736095	-0.17613830	-1.46664960	-0.77762163	1.70089318
992	9.91000000	-0.33794014	0.25550807	-0.16325859	-0.75657054	-0.26407920	0.28244862	-0.33437009	0.01696975	-1.90978829	0.85467635	0.18233114	0.03872916	-0.58681048	0.97277322	1.13894468	-0.82694923	-0.29872102	-0.33186454	-0.04318509	-1.92237638	-0.11683241	-1.01411200	2.40754726	0.23001988
993	9.92000000	-0.35080518	0.29293862	-0.19677027	-0.78082968	-0.20223784	0.16183870	-0.27859055	0.06345597	-2.11885201	0.88652029	0.31559818	0.21339538	-1.03350504	1.24259327	2.57075239	-1.14153256	-0.41267596	-0.19573931	-0.09823755	-2.26844982	-0.06707951	-0.75818141	1.69308162	-0.54394538
994	9.93000000	-0.37007707	0.26028087	-0.24961324	-0.75678114	-0.21736900	0.04689265	-0.25751895	0.06536879	-2.31141581	0.76747640	0.46183840	0.41481067	-2.03835693	0.09023640	4.09592375	-1.43625541	-0.35240653	0.05602067	-0.04222828	-2.69600612	-0.05211699	-0.33144470	0.05774574	0.38594004
995	9.94000000	-0.40184502	0.24514354	-0.32224842	-0.77924558	-0.24205316	-0.10494028	-0.21085225	0.07785798	-2.43468489	0.54903687	0.68327456	0.64882170	-0.75735280	-0.50848537	3.40259474	-1.59978607	-0.15020601	0.27420631	0.06809083	-3.16675516	-0.04718734	-0.21909614	0.53534708	0.19864121
996	9.95000000	-0.38026729	0.26162645	-0.39702770	-0.70080676	-0.31157942	-0.25184164	-0.13282837	0.14800688	-2.48857228	0.32452455	0.88845313	0.89818243	0.54270514	0.51754930	0.65920709	-1.50656030	-0.00004457	0.62994489	0.06001563	-3.73553339	0.01439561	-0.30476672	0.14541667	-0.00466262
997	9.96000000	-0.36359444	0.20776019	-0.46409076	-0.59288854	-0.39335775	-0.36140670	-0.09865782	0.29831261	-2.54176813	0.10919428	0.97541115	1.11066497	0.11570173	0.62927819	-1.13019633	-1.12232046	0.00335071	1.07407972	-0.06770124	-4.32705828	0.06562239	-0.06807316	-0.05124068	0.13234003
998	9.97000000	-0.36113757	0.13580524	-0.52546896	-0.58270772	-0.39837248	-0.42596719	-0.13213430	0.45455399	-2.59218912	-0.12195232	0.98363403	1.29649329	-0.05729466	-0.31441596	-0.98886416	-0.67326406	-0.08236941	1.37690090	0.38489245	-4.74836386	0.08183641	0.10223014	-0.13188568	0.04814702
999	9.98000000	-0.35271216	0.10192157	-0.58669976	-0.61623753	-0.38694893	-0.43485509	-0.29988662	0.55815051	-2.60626529	-0.38372632	0.98454131	1.52551921	0.69203393	-0.39090837	-0.05877590	-0.35539966	-0.09762880	1.56746659	0.93728614	-5.13286653	0.10788003	0.13632951	-0.17283033	-0.08033173
1000	9.99000000	-0.36154024	0.05956105	-0.61976051	-0.67733078	-0.42240449	-0.41927550	-0.48149995	0.64439469	-2.63703906	-0.62186879	1.01491404	1.78650236	0.72803791	-0.16850199	0.85611406	-0.23150624	-0.03411847	1.65489273	0.54461290	-5.36876814	-0.11663969	0.25955733	-0.21294905	-0.11142984
1001	10.00000000	-0.36255346	0.00459704	-0.60616596	-0.75886771	-0.42965221	-0.40257549	-0.70288626	0.60004134	-2.65943910	-0.78947433	1.01687150	1.98518117	-0.50393399	-0.25042298	1.52993880	-0.32831222	0.02405965	1.63730441	0.14249519	-5.31367798	-0.50003380	0.25798682	-0.18126269	-0.11032265
1002	10.01000000	-0.35918254	-0.02665852	-0.58230813	-0.82627587	-0.34299672	-0.38974852	-1.01194168	0.40564835	-2.59785423	-0.97991781	0.92148313	2.04054864	-0.42109630	-0.21123382	1.29582358	-0.59502354	0.09274024	1.59598413	-0.46298807	-4.89586050	-0.74184013	0.20874930	-0.18669942	-0.12290052
1003	10.02000000	-0.34792011	-0.03485127	-0.58666633	-0.83422923	-0.20657991	-0.38351823	-1.38391754	0.25654101	-2.41473241	-1.22090685	0.79543653	1.95482793	-0.19359931	-0.30320517	0.45884338	-0.92380082	0.15302537	1.60925439	-1.30278075	-4.03589441	-0.94225850	0.20540760	-0.17295620	-0.12616643
1004	10.03000000	-0.33868380	-0.04767438	-0.59679244	-0.79957285	-0.06546962	-0.34740731	-1.49116085	0.28846858	-2.11725085	-1.41508766	0.76341933	1.82128767	-0.37750331	-0.28811948	-0.21715869	-1.15875154	0.11786969	1.66997993	-1.60968416	-3.23311986	-1.43662888	0.17552487	-0.18931106	-0.07426413
1005	10.04000000	-0.33995569	-0.05902619	-0.58484798	-0.76004217	0.06923860	-0.28458721	-0.93043565	0.33186384	-1.80261051	-1.51433267	0.83194465	1.71468730	0.21908280	-0.17988937	-0.39660462	-1.17060687	-0.05388879	1.69131814	-2.39520280	-2.34047919	-2.12315229	0.08079756	-0.15803438	-0.00154355
1006	10.05000000	-0.34320405	-0.04369745	-0.56022211	-0.73024477	0.19811914	-0.20643076	-0.17733079	0.20030068	-1.57439216	-1.52086978	0.92888687	1.62112740	0.79557489	-0.10247652	0.11475682	-0.85042850	-0.27716882	1.58913590	-3.25323249	-0.67032245	-2.95636809	0.00194055	-0.10138837	0.04417040
1007	10.06000000	-0.34266697	0.00631749	-0.52020288	-0.70399063	0.33228834	-0.12137060	0.11432379	-0.19422862	-1.44877911	-1.49251550	0.98503131	1.53877420	0.78839310	0.06084098	0.79754623	-0.33144853	-0.35194622	1.34733560	-3.22056296	1.34698300	-3.77343049	-0.01095662	-0.06486850	0.09016294
1008	10.07000000	-0.34489667	0.07094045	-0.45823327	-0.67627887	0.44453924	-0.03834291	-0.20202769	-0.82317877	-1.33102586	-1.44647440	0.99203395	1.50966225	0.70820638	0.08494190	1.00853448	0.07525745	-0.19908014	1.03944995	-3.10483282	2.66266950	-4.09455181	-0.05709606	-0.04210052	0.13459326
1009	10.08000000	-0.37939350	0.09384008	-0.38804274	-0.64995868	0.51084273	0.02694489	-0.98285090	-1.55964392	-1.07328426	-1.32228654	0.98824722	1.53386414	0.53077762	0.10662953	0.83800666	0.29806693	0.00661774	0.75065192	-1.85049132	3.28678919	-4.03231639	-0.12799889	-0.02721343	0.16784915
1010	10.09000000	-0.43109221	0.05764495	-0.32023754	-0.62031972	0.52783797	0.06552476	-1.94491259	-2.09322761	-0.58857309	-1.17340530	1.00892553	1.53657416	0.14356454	0.24453242	0.73318198	0.40424310	0.08625138	0.51405898	-0.42944077	3.63445200	-3.46643471	-0.14743922	-0.04811298	0.19921162
1011	10.10000000	-0.47398416	-0.01347832	-0.25892412	-0.58957240	0.50155915	0.09603057	-2.78033625	-2.14582015	0.15188750	-1.06190636	0.99964687	1.52770981	-0.15538574	0.34872196	0.79800549	0.46362880	0.03819406	0.35384753	0.63986874	3.88908033	-2.54776752	-0.15393035	-0.07267268	0.20460849
1012	10.11000000	-0.51130263	-0.09847878	-0.20484397	-0.56609496	0.45624354	0.13010793	-3.22869715	-1.80352435	1.05955744	-0.99660102	0.92166261	1.51744651	-0.38487380	0.40541176	0.91453036	0.45539557	-0.04943107	0.29331091	0.78027126	3.81644323	-1.37594335	-0.14451822	-0.10949626	0.19652419
1013	10.12000000	-0.56036668	-0.18066756	-0.17632677	-0.56292754	0.41069611	0.14649247	-3.42035944	-1.29276965	1.99885144	-0.96362457	0.80430743	1.48406479	-0.48651482	0.42749493	1.00495310	0.27324058	-0.07923761	0.31005942	0.15955923	3.59223436	-0.16029592	-0.12311167	-0.20849856	0.19343315
1014	10.13000000	-0.59143434	-0.24442941	-0.17693028	-0.57818315	0.37158363	0.13772119	-3.17441413	-0.85891745	2.71786475	-0.87432085	0.68593256	1.42150247	-0.37263055	0.44509162	1.01035568	0.01211083	-0.00946294	0.36496840	-0.53969976	3.33156781	0.90461064	-0.07070205	-0.28310576	0.16882488
1015	10.14000000	-0.59124068	-0.31433170	-0.18557761	-0.59611499	0.33878395	0.11049653	-2.36079062	-0.64762186	3.05067301	-0.68246631	0.58393354	1.32552843	-0.14982284	0.53192661	0.96444202	-0.13776628	0.09028417	0.43024373	-0.86941796	3.26054239	1.66965139	-0.03509944	-0.34383241	0.14883195
1016	10.15000000	-0.57627770	-0.38644356	-0.19473400	-0.62562697	0.30904631	0.07633998	-1.64375171	-0.57345162	3.19459603	-0.39643981	0.50901984	1.20073948	0.09796854	0.58235304	0.95555041	-0.15217286	0.10914801	0.46664063	-0.80671338	3.50005958	2.10344848	0.00103126	-0.41545471	0.15885389
1017	10.16000000	-0.54635541	-0.43174569	-0.20084579	-0.65865333	0.29617723	0.03414316	-1.14937949	-0.54959705	3.26796970	-0.07758455	0.46448230	1.07125262	0.30552131	0.56892852	0.98294979	-0.05996880	0.03827220	0.48743021	-0.56382545	3.92976715	2.25742836	0.02284901	-0.45930540	0.17587689
1018	10.17000000	-0.50685804	-0.46242888	-0.20690419	-0.67157038	0.29494416	0.00267772	-0.56005806	-0.57658362	3.38989657	0.22914236	0.43737208	0.95812808	0.34537775	0.57130204	0.98413941	0.09511097	-0.05291816	0.52359887	-0.70408385	4.31421159	2.18852238	-0.02371478	-0.48698794	0.19183940
1019	10.18000000	-0.46447927	-0.47073335	-0.21681395	-0.66153888	0.29471576	-0.00480210	0.31147655	-0.64491585	3.65082610	0.48926574	0.44226889	0.86404753	0.34756999	0.55118944	0.94268781	0.22501202	-0.14204852	0.55869600	-1.14722074	4.53025549	1.95209585	-0.02461307	-0.51173638	0.20766586
1020	10.19000000	-0.43255154	-0.47214697	-0.22029112	-0.63583528	0.30381739	0.00276874	1.23362342	-0.70483387	4.00696648	0.66195567	0.48399574	0.77187608	0.26020226	0.56701720	0.91816872	0.28318664	-0.18932661	0.58530764	-1.47335327	4.69396871	1.60244763	-0.00447003	-0.52735630	0.22281563
1021	10.20000000	-0.40349015	-0.47377370	-0.21486749	-0.59126972	0.32767040	0.00965210	2.02777369	-0.70855273	4.39172972	0.78153252	0.55787515	0.65198387	0.16093698	0.55879157	0.93498514	0.26797577	-0.16263167	0.57665167	-1.55927389	4.89910936	1.22178841	-0.00780733	-0.54120302	0.24704653
1022	10.21000000	-0.36839509	-0.47591045	-0.20060334	-0.54064185	0.35320396	0.02634829	2.75592847	-0.65647144	4.69750113	0.84700537	0.62982419	0.51248021	0.04724114	0.53103247	0.96434048	0.18532943	-0.06548233	0.54756236	-1.64216823	5.08112119	0.89148800	-0.01299551	-0.56736531	0.26984645
1023	10.22000000	-0.34421493	-0.46914883	-0.18298312	-0.49251193	0.37532238	0.05371177	3.31058984	-0.59603642	4.89820610	0.85742338	0.67123427	0.39165868	-0.02138001	0.48445118	0.93595492	0.03779591	0.05768328	0.54467192	-1.81588024	5.15218354	0.65094833	-0.05149916	-0.59012676	0.28500614
